/* XPM */
static char *bibli[] = {
/* columns rows colors chars-per-pixel */
"64 64 13 1 ",
"  c #271E11",
". c #2C2213",
"X c #4C3D26",
"o c #145808",
"O c #695433",
"+ c #735E39",
"@ c #7C623E",
"# c #D21A1A",
"$ c #FFDC3B",
"% c #9F844D",
"& c #B4905A",
"* c #BC9862",
"= c #3F28B2",
/* pixels */
"************&&&&************%%%%%%%%%%%%++++****************%%%%",
"************&&&&************%%%%%%%%%%%%++++****************%%%%",
"************&&&&************%%%%%%%%%%%%++++****************%%%%",
"************&&&&************%%%%%%%%%%%%++++****************%%%%",
"****                                                    ....%%%%",
"****                                                    ....%%%%",
"****                                                    ....%%%%",
"****                                                    ....%%%%",
"****                                                ########%%%%",
"****                                                ########%%%%",
"****                                                ########%%%%",
"****                                                ########%%%%",
"OOOO                                                ########++++",
"OOOO                                                ########++++",
"OOOO                                                ########++++",
"OOOO                                                ########++++",
"****                                                ########****",
"****                                                ########****",
"****                                                ########****",
"****                                                ########****",
"%%%%    ====================                        ########%%%%",
"%%%%    ====================                        ########%%%%",
"%%%%    ====================                        ########%%%%",
"%%%%    ====================                        ########%%%%",
"****    ====================                        ########****",
"****    ====================                        ########****",
"****    ====================                        ########****",
"****    ====================                        ########****",
"++++++++OOOOOOOOOOOOOOOOOOOO++++++++++++OOOOOOOOOOOOOOOO++++++++",
"++++++++OOOOOOOOOOOOOOOOOOOO++++++++++++OOOOOOOOOOOOOOOO++++++++",
"++++++++OOOOOOOOOOOOOOOOOOOO++++++++++++OOOOOOOOOOOOOOOO++++++++",
"++++++++OOOOOOOOOOOOOOOOOOOO++++++++++++OOOOOOOOOOOOOOOO++++++++",
"****%%%%%%%%%%%%%%%%****&&&&&&&&%%%%%%%%%%%%++++****%%%%%%%%%%%%",
"****%%%%%%%%%%%%%%%%****&&&&&&&&%%%%%%%%%%%%++++****%%%%%%%%%%%%",
"****%%%%%%%%%%%%%%%%****&&&&&&&&%%%%%%%%%%%%++++****%%%%%%%%%%%%",
"****%%%%%%%%%%%%%%%%****&&&&&&&&%%%%%%%%%%%%++++****%%%%%%%%%%%%",
"%%%%                                                        %%%%",
"%%%%                                                        %%%%",
"%%%%                                                        %%%%",
"%%%%                                                        %%%%",
"****                                                        %%%%",
"****                                                        %%%%",
"****                                                        %%%%",
"****                                                        %%%%",
"++++                                                        ++++",
"++++                                                        ++++",
"++++                                                        ++++",
"++++                                                        ++++",
"****                                                        ****",
"****                                                        ****",
"****                                                        ****",
"****                                                        ****",
"&&&&                            oooooooooooooooooooo$$$$oooo&&&&",
"&&&&                            oooooooooooooooooooo$$$$oooo&&&&",
"&&&&                            oooooooooooooooooooo$$$$oooo&&&&",
"&&&&                            oooooooooooooooooooo$$$$oooo&&&&",
"****                            oooooooooooooooooooo$$$$oooo****",
"****                            oooooooooooooooooooo$$$$oooo****",
"****                            oooooooooooooooooooo$$$$oooo****",
"****                            oooooooooooooooooooo$$$$oooo****",
"++++++++++++@@@@OOOOOOOO@@@@OOOO++++++++++++OOOOXXXXOOOOOOOO++++",
"++++++++++++@@@@OOOOOOOO@@@@OOOO++++++++++++OOOOXXXXOOOOOOOO++++",
"++++++++++++@@@@OOOOOOOO@@@@OOOO++++++++++++OOOOXXXXOOOOOOOO++++",
"++++++++++++@@@@OOOOOOOO@@@@OOOO++++++++++++OOOOXXXXOOOOOOOO++++"
};
