/* XPM */
static char *brique[] = {
/* columns rows colors chars-per-pixel */
"64 64 3 1 ",
"  c #7C4536",
". c #A55B47",
"X c #D9D2D0",
/* pixels */
"........    XXXX........................    XXXX................",
"........    XXXX........................    XXXX................",
"........    XXXX........................    XXXX................",
"........    XXXX........................    XXXX................",
"........    XXXX........................    XXXX................",
"........    XXXX........................    XXXX................",
"........    XXXX........................    XXXX................",
"........    XXXX........................    XXXX................",
"            XXXX                            XXXX                ",
"            XXXX                            XXXX                ",
"            XXXX                            XXXX                ",
"            XXXX                            XXXX                ",
"XXXXXXXXXXXXXXXXXXXXXXXXXXXXXXXXXXXXXXXXXXXXXXXXXXXXXXXXXXXXXXXX",
"XXXXXXXXXXXXXXXXXXXXXXXXXXXXXXXXXXXXXXXXXXXXXXXXXXXXXXXXXXXXXXXX",
"XXXXXXXXXXXXXXXXXXXXXXXXXXXXXXXXXXXXXXXXXXXXXXXXXXXXXXXXXXXXXXXX",
"XXXXXXXXXXXXXXXXXXXXXXXXXXXXXXXXXXXXXXXXXXXXXXXXXXXXXXXXXXXXXXXX",
"........................    XXXX........................    XXXX",
"........................    XXXX........................    XXXX",
"........................    XXXX........................    XXXX",
"........................    XXXX........................    XXXX",
"........................    XXXX........................    XXXX",
"........................    XXXX........................    XXXX",
"........................    XXXX........................    XXXX",
"........................    XXXX........................    XXXX",
"                            XXXX                            XXXX",
"                            XXXX                            XXXX",
"                            XXXX                            XXXX",
"                            XXXX                            XXXX",
"XXXXXXXXXXXXXXXXXXXXXXXXXXXXXXXXXXXXXXXXXXXXXXXXXXXXXXXXXXXXXXXX",
"XXXXXXXXXXXXXXXXXXXXXXXXXXXXXXXXXXXXXXXXXXXXXXXXXXXXXXXXXXXXXXXX",
"XXXXXXXXXXXXXXXXXXXXXXXXXXXXXXXXXXXXXXXXXXXXXXXXXXXXXXXXXXXXXXXX",
"XXXXXXXXXXXXXXXXXXXXXXXXXXXXXXXXXXXXXXXXXXXXXXXXXXXXXXXXXXXXXXXX",
"........    XXXX........................    XXXX................",
"........    XXXX........................    XXXX................",
"........    XXXX........................    XXXX................",
"........    XXXX........................    XXXX................",
"........    XXXX........................    XXXX................",
"........    XXXX........................    XXXX................",
"........    XXXX........................    XXXX................",
"........    XXXX........................    XXXX................",
"            XXXX                            XXXX                ",
"            XXXX                            XXXX                ",
"            XXXX                            XXXX                ",
"            XXXX                            XXXX                ",
"XXXXXXXXXXXXXXXXXXXXXXXXXXXXXXXXXXXXXXXXXXXXXXXXXXXXXXXXXXXXXXXX",
"XXXXXXXXXXXXXXXXXXXXXXXXXXXXXXXXXXXXXXXXXXXXXXXXXXXXXXXXXXXXXXXX",
"XXXXXXXXXXXXXXXXXXXXXXXXXXXXXXXXXXXXXXXXXXXXXXXXXXXXXXXXXXXXXXXX",
"XXXXXXXXXXXXXXXXXXXXXXXXXXXXXXXXXXXXXXXXXXXXXXXXXXXXXXXXXXXXXXXX",
"........................    XXXX........................    XXXX",
"........................    XXXX........................    XXXX",
"........................    XXXX........................    XXXX",
"........................    XXXX........................    XXXX",
"........................    XXXX........................    XXXX",
"........................    XXXX........................    XXXX",
"........................    XXXX........................    XXXX",
"........................    XXXX........................    XXXX",
"                            XXXX                            XXXX",
"                            XXXX                            XXXX",
"                            XXXX                            XXXX",
"                            XXXX                            XXXX",
"XXXXXXXXXXXXXXXXXXXXXXXXXXXXXXXXXXXXXXXXXXXXXXXXXXXXXXXXXXXXXXXX",
"XXXXXXXXXXXXXXXXXXXXXXXXXXXXXXXXXXXXXXXXXXXXXXXXXXXXXXXXXXXXXXXX",
"XXXXXXXXXXXXXXXXXXXXXXXXXXXXXXXXXXXXXXXXXXXXXXXXXXXXXXXXXXXXXXXX",
"XXXXXXXXXXXXXXXXXXXXXXXXXXXXXXXXXXXXXXXXXXXXXXXXXXXXXXXXXXXXXXXX"
};
