/* XPM */
static char *carro[] = {
/* columns rows colors chars-per-pixel */
"64 64 44 1 ",
"  c #067900",
". c #077C00",
"X c #097900",
"o c #0B7C00",
"O c #0B7E00",
"+ c #0B7F00",
"@ c #0C7C00",
"# c #0C7D00",
"$ c #0C7E00",
"% c #AD7807",
"& c #038A00",
"* c #038B00",
"= c #048800",
"- c #048A00",
"; c #038C00",
": c #039000",
"> c #039300",
", c #039400",
"< c #039500",
"1 c #039600",
"2 c #039700",
"3 c #04A500",
"4 c #04A600",
"5 c #04A700",
"6 c #04A800",
"7 c #04AC00",
"8 c #04AD00",
"9 c #04AE00",
"0 c #04AF00",
"q c #04B000",
"w c #04B100",
"e c #04B800",
"r c #04B900",
"t c #04BA00",
"y c #04BB00",
"u c #04BC00",
"i c #04BD00",
"p c #07C200",
"a c #08C000",
"s c #08C200",
"d c #08C300",
"f c #08C400",
"g c #E2A010",
"h c None",
/* pixels */
"hhhhhhhhhhhhhhhhhhhhhhhhhhhhhhhhhhhhhhhhhhhhhhhhhhhhhhhhhhhhhhhh",
"hhhhhhhhhhhhhhhhhhhhhhhhhhhhhhhhhhhhhhhhhhhhhhhhhhhhhhhhhhhhhhhh",
"hhhhhhhhhhhhhhhhhhhhhhhhhhhhhhhhhhhhhhhhhhhhhhhhhhhhhhhhhhhhhhhh",
"hhhhhhhhhhhhhhhhhhhhhhhhhhhhhhhhhhhhhhhhhhhhhhhhhhhhhhhhhhhhhhhh",
"hhhhhhhhhhhhhhhhhhhhhhhhhhhhhhhhhhhhhhhhhhhhhhhhhhhhhhhhhhhhhhhh",
"hhhhhhhhhhhhhhhhhhhhhhhhhhhhhhhhhhhhhhhhhhhhhhhhhhhhhhhhhhhhhhhh",
"hhhhhhhhhhhhhhhhhhhhhhhhhhhhhhhhhhhhhhhhhhhhhhhhhhhhhhhhhhhhhhhh",
"hhhhhhhhhhhhhhhhhhhhhhhhhhhhhhhhhhhhhhhhhhhhhhhhhhhhhhhhhhhhhhhh",
"hhhhhhhhhhhhhhhhhhhhhhhhhhhhhhhhhhhhhhhhhhhhhhhhhhhhhhhhhhhhhhhh",
"hhhhhhhhhhhhhhhhhhhhhhhhhhhhhhhhhhhhhhhhhhhhhhhhhhhhhhhhhhhhhhhh",
"hhhhhhhhhhhhhhhhhhhhhhhhhhhhhhhhhhhhhhhhhhhhhhhhhhhhhhhhhhhhhhhh",
"hhhhhhhhhhhhhhhhhhhhhhhhhhhhhhhhhhhhhhhhhhhhhhhhhhhhhhhhhhhhhhhh",
"hhhhhhhhhhhhhhhhhhhhhhhhhhhhhhhhhhhhhhhhhhhhhhhhhhhhhhhhhhhhhhhh",
"hhhhhhhhhhhhhhhhhhhhhhhhhhhhhhhhhhhhhhhhhhhhhhhhhhhhhhhhhhhhhhhh",
"hhhhhhhhhhhhhhhhhhhhhhhhhhhhhhhhhhhhhhhhhhhhhhhhhhhhhhhhhhhhhhhh",
"hhhhhhhhhhhhhhhhhhhhhhhhhhhhhhhhhhhhhhhhhhhhhhhhhhhhhhhhhhhhhhhh",
"ffffhhhhhhhhhhhhhhhhffffhhhhhhhhhhhhhhhhhhhhhhhhhhhhhhhhhhhhhhhh",
"ffffhhhhhhhhhhhhhhhhffffhhhhhhhhhhhhhhhhhhhhhhhhhhhhhhhhhhhhhhhh",
"ffffhhhhhhhhhhhhhhhhffffhhhhhhhhhhhhhhhhhhhhhhhhhhhhhhhhhhhhhhhh",
"ffffhhhhhhhhhhhhhhhhffffhhhhhhhhhhhhhhhhhhhhhhhhhhhhhhhhhhhhhhhh",
"ffffhhhhffffhhhhffffffffhhhhhhhhhhhhffffffffffffhhhhffffhhhhffff",
"ffffhhhhffffhhhhffffffffhhhhhhhhhhhhffffffffffffhhhhffffhhhhffff",
"ffffhhhhffffhhhhffffffffhhhhhhhhhhhhffffffffffffhhhhffffhhhhffff",
"ffffhhhhffffhhhhffffffffhhhhhhhhhhhhffffffffffffhhhhffffhhhhffff",
"hhhhaaaaaafafafaffafhhhhaafapppphhhhhhhhffffafffffffffffffffhhhh",
"hhhhaaaaafafafafffffhhhhafafpppphhhhhhhhfffffffaffffffffffffhhhh",
"hhhhaaaafafafafaffafhhhhfafapppphhhhhhhhffffafafffffffffffffhhhh",
"hhhhaaaaafafafaafaffhhhhafafpppphhhhhhhhffffffffffffffffffffhhhh",
"hhhhiiiiiiiiiiiyiyiyyyyyiiiyiyiyyyyyhhhhiyiyiiiiiiiihhhhyyyyhhhh",
"hhhhiiiiiiiiiiyiyiyiyyyyiiyiyiyiyyyyhhhhyiyiiiiiiiiihhhhyyyyhhhh",
"hhhhiiiiiiiiiyiyiyiyyyyyiyiyiyiyyyyyhhhhiyiyiiiiiiiihhhhyyyyhhhh",
"hhhhiiiiiiiiyiyiyiyiyyyyyiyiyiyiyyyyhhhhyiyiiiiiiiiihhhhyyyyhhhh",
"hhhhhhhheueueeeeueuehhhhueueeeeeyyeeyeyyyeeeeeeehhhheyyyhhhhhhhh",
"hhhhhhhhueueeeeeeueuhhhheueueeeeeeyeyyyeeeyeeeeehhhhyyeyhhhhhhhh",
"hhhhhhhheueueeeeueuehhhhueueeeeeyyeeyyyeeyeyeeeehhhhyeyehhhhhhhh",
"hhhhhhhhueeeeeeeeueuhhhheueeeeeeeeeyeeyyeyeyeeeehhhhyeyyhhhhhhhh",
"hhhhhhhh00000000q000hhhhqqqqqqqq0000hhhhwwww000000000000hhhhhhhh",
"hhhhhhhh007000000000hhhhqqqqqqqq0000hhhhwwww000006060000hhhhhhhh",
"hhhhhhhh070000007070hhhhqqqqqqqq0000hhhhwwww000000000000hhhhhhhh",
"hhhhhhhh000700000070hhhhqqqqqqqq0000hhhhwwww000060600000hhhhhhhh",
"hhhhhhhh7777555533335353hhhh55553333hhhhhhhh66666336hhhhhhhhhhhh",
"hhhhhhhh7777555533333535hhhh55553333hhhhhhhh66666666hhhhhhhhhhhh",
"hhhhhhhh7777555533335353hhhh55553333hhhhhhhh66663663hhhhhhhhhhhh",
"hhhhhhhh7770555533333535hhhh55553333hhhhhhhh66633663hhhhhhhhhhhh",
"hhhhhhhhhhhh22221111>>1>hhhh>11>>>>>>;>;hhhh1111111>hhhhhhhhhhhh",
"hhhhhhhhhhhh22221111>>1>hhhh>>>>>>>>;>>;hhhh11>11111hhhhhhhhhhhh",
"hhhhhhhhhhhh22221111>1>>hhhh1>>1>>>>>>;>hhhh>>11>1>1hhhhhhhhhhhh",
"hhhhhhhhhhhh22211111>>>1hhhh1>11>>>>;>>;hhhh111>11>1hhhhhhhhhhhh",
"hhhhhhhhhhhh=------------===----=******=hhhh***=*;;;hhhhhhhhhhhh",
"hhhhhhhhhhhh--:-----------==----**====**hhhh==***;;;hhhhhhhhhhhh",
"hhhhhhhhhhhh-:----------====--==*=******hhhh****;;;;hhhhhhhhhhhh",
"hhhhhhhhhhhh------------====---=**=**=**hhhh*=**;;;;hhhhhhhhhhhh",
"hhhhhhhh    =@@=@@@@@@@@@@oo@=@@o@oo....XXXX@@@@@@@@hhhhhhhhhhhh",
"hhhhhhhh    @@@@@@@@oX@@@@oo@@=@o=@=....XXXX@@@@@@@@hhhhhhhhhhhh",
"hhhhhhhh  XX@@@@@@@@oo@@@@Xo@=@@=@@@....XXXX@@@@@@@@hhhhhhhhhhhh",
"hhhhhhhh  @@@@=@=@@@oo@@@@@@@@@@@@@=....XXXX@@@@@@@@hhhhhhhhhhhh",
"hhhhhhhhhhhhXXXXXXXXXXXXXXXXXXXX@XXXhhhhXXXXXXXXXXXXXXXXhhhhhhhh",
"hhhhhhhhhhhhXXXXXXXXXXXXXXXXXXXXXXXXhhhhXXXXXXXXXXXXXXXXhhhhhhhh",
"hhhhhhhhhhhhXXXXXXXXXXXXXXXXXXXXXXXXhhhhXXXXXXXXXXXXXXXXhhhhhhhh",
"hhhhhhhhhhhhXXXXXXXXXXXXXXXXXXX@XXXXhhhhXXXXXXXXXXXXXXXXhhhhhhhh",
"hhhhhhhh%%%%gggggggg%%%%%%%%gggggggg%%%%%%%%gggggggg%%%%hhhhhhhh",
"hhhhhhhh%%%%gggggggg%%%%%%%%gggggggg%%%%%%%%gggggggg%%%%hhhhhhhh",
"hhhhhhhh%%%%gggggggg%%%%%%%%gggggggg%%%%%%%%gggggggg%%%%hhhhhhhh",
"hhhhhhhh%%%%gggggggg%%%%%%%%gggggggg%%%%%%%%gggggggg%%%%hhhhhhhh"
};
