/* XPM */
static char *cobble[] = {
/* columns rows colors chars-per-pixel */
"64 64 3 1 ",
"  c #6F6F6F",
". c gray56",
"X c #A4A4A4",
/* pixels */
"........        ........    ............                ........",
"........        ........    ............                ........",
"........        ........    ............                ........",
"........        ........    ............                ........",
"....    XXXX........    XXXX................        XXXX........",
"....    XXXX........    XXXX................        XXXX........",
"....    XXXX........    XXXX................        XXXX........",
"....    XXXX........    XXXX................        XXXX........",
"    XXXX............    XXXX................            XXXXXXXX",
"    XXXX............    XXXX................            XXXXXXXX",
"    XXXX............    XXXX................            XXXXXXXX",
"    XXXX............    XXXX................            XXXXXXXX",
"        XXXXXXXXXXXX    XXXX....XXXXXXXX        ....            ",
"        XXXXXXXXXXXX    XXXX....XXXXXXXX        ....            ",
"        XXXXXXXXXXXX    XXXX....XXXXXXXX        ....            ",
"        XXXXXXXXXXXX    XXXX....XXXXXXXX        ....            ",
"XXXX....                XXXXXXXX        ................        ",
"XXXX....                XXXXXXXX        ................        ",
"XXXX....                XXXXXXXX        ................        ",
"XXXX....                XXXXXXXX        ................        ",
"XXXX....    XXXX........            XXXX....................    ",
"XXXX....    XXXX........            XXXX....................    ",
"XXXX....    XXXX........            XXXX....................    ",
"XXXX....    XXXX........            XXXX....................    ",
"XXXX....    XXXXXXXXXXXXXXXX            XXXXXXXXXXXXXXXX        ",
"XXXX....    XXXXXXXXXXXXXXXX            XXXXXXXXXXXXXXXX        ",
"XXXX....    XXXXXXXXXXXXXXXX            XXXXXXXXXXXXXXXX        ",
"XXXX....    XXXXXXXXXXXXXXXX            XXXXXXXXXXXXXXXX        ",
"XXXX........                ........                            ",
"XXXX........                ........                            ",
"XXXX........                ........                            ",
"XXXX........                ........                            ",
"    XXXX............    XXXXXXXX........................        ",
"    XXXX............    XXXXXXXX........................        ",
"    XXXX............    XXXXXXXX........................        ",
"    XXXX............    XXXXXXXX........................        ",
"    XXXX............            XXXX............        ........",
"    XXXX............            XXXX............        ........",
"    XXXX............            XXXX............        ........",
"    XXXX............            XXXX............        ........",
"        XXXXXXXX                    XXXXXXXX        ............",
"        XXXXXXXX                    XXXXXXXX        ............",
"        XXXXXXXX                    XXXXXXXX        ............",
"        XXXXXXXX                    XXXXXXXX        ............",
"                    XXXX............            XXXX............",
"                    XXXX............            XXXX............",
"                    XXXX............            XXXX............",
"                    XXXX............            XXXX............",
"    ............    XXXXXXXX............        XXXX........    ",
"    ............    XXXXXXXX............        XXXX........    ",
"    ............    XXXXXXXX............        XXXX........    ",
"    ............    XXXXXXXX............        XXXX........    ",
"XXXX............            XXXXXXXXXXXX....    XXXXXXXXXXXX    ",
"XXXX............            XXXXXXXXXXXX....    XXXXXXXXXXXX    ",
"XXXX............            XXXXXXXXXXXX....    XXXXXXXXXXXX    ",
"XXXX............            XXXXXXXXXXXX....    XXXXXXXXXXXX    ",
"    XXXX....................            XXXX                    ",
"    XXXX....................            XXXX                    ",
"    XXXX....................            XXXX                    ",
"    XXXX....................            XXXX                    ",
"....    XXXXXXXX            ............        ........    ....",
"....    XXXXXXXX            ............        ........    ....",
"....    XXXXXXXX            ............        ........    ....",
"....    XXXXXXXX            ............        ........    ...."
};
