/* XPM */
static char *door[] = {
/* columns rows colors chars-per-pixel */
"64 64 12 1 ",
"  c #353535",
". c #5B3C1C",
"X c #634721",
"o c #674A22",
"O c #785327",
"+ c #7A5B2B",
"@ c #896832",
"# c #8F6B35",
"$ c #916D38",
"% c #A08340",
"& c #A58845",
"* c #A78A49",
/* pixels */
"    ####OOOO################&&&&OOOO$$$$############****####....",
"    ####OOOO################&&&&OOOO$$$$############****####....",
"    ####OOOO################&&&&OOOO$$$$############****####....",
"    ####OOOO################&&&&OOOO$$$$############****####....",
"****########****&&&&&&&&%%%%%%%%@@@@%%%%%%%%&&&&%%%%&&&&####....",
"****########****&&&&&&&&%%%%%%%%@@@@%%%%%%%%&&&&%%%%&&&&####....",
"****########****&&&&&&&&%%%%%%%%@@@@%%%%%%%%&&&&%%%%&&&&####....",
"****########****&&&&&&&&%%%%%%%%@@@@%%%%%%%%&&&&%%%%&&&&####....",
"****########################################################....",
"****########################################################....",
"****########################################################....",
"****########################################################....",
"****####oooooooooooooooooooo****ooooooooXXXXXXXXoooo****####....",
"****####oooooooooooooooooooo****ooooooooXXXXXXXXoooo****####....",
"****####oooooooooooooooooooo****ooooooooXXXXXXXXoooo****####....",
"****####oooooooooooooooooooo****ooooooooXXXXXXXXoooo****####....",
"****####OOOO@@@@########$$$$****OOOO####@@@@########****####....",
"****####OOOO@@@@########$$$$****OOOO####@@@@########****####....",
"****####OOOO@@@@########$$$$****OOOO####@@@@########****####....",
"****####OOOO@@@@########$$$$****OOOO####@@@@########****####....",
"****####OOOO############$$$$****OOOO################****####....",
"****####OOOO############$$$$****OOOO################****####....",
"****####OOOO############$$$$****OOOO################****####....",
"****####OOOO############$$$$****OOOO################****####....",
"****####OOOO############$$$$****OOOO################****####....",
"****####OOOO############$$$$****OOOO################****####....",
"****####OOOO############$$$$****OOOO################****####....",
"****####OOOO############$$$$****OOOO################****####....",
"****####OOOO********************++++********************####....",
"****####OOOO********************++++********************####....",
"****####OOOO********************++++********************####....",
"****####OOOO********************++++********************####....",
"****####$$$$$$$$$$$$++++@@@@$$$$$$$$############$$$$$$$$####....",
"****####$$$$$$$$$$$$++++@@@@$$$$$$$$############$$$$$$$$####....",
"****####$$$$$$$$$$$$++++@@@@$$$$$$$$############$$$$$$$$####....",
"****####$$$$$$$$$$$$++++@@@@$$$$$$$$############$$$$$$$$####....",
"****####oooooooooooooooooooo****oooooooooooooooooooo****####....",
"****####oooooooooooooooooooo****oooooooooooooooooooo****####....",
"****####oooooooooooooooooooo****oooooooooooooooooooo****####....",
"****####oooooooooooooooooooo****oooooooooooooooooooo****####....",
"    ####OOOO########$$$$@@@@%%%%OOOO@@@@############****####....",
"    ####OOOO########$$$$@@@@%%%%OOOO@@@@############****####....",
"    ####OOOO########$$$$@@@@%%%%OOOO@@@@############****####....",
"    ####OOOO########$$$$@@@@%%%%OOOO@@@@############****####....",
"    ####OOOO################****OOOO################****####....",
"    ####OOOO################****OOOO################****####....",
"    ####OOOO################****OOOO################****####....",
"    ####OOOO################****OOOO################****####....",
"****####OOOO$$$$########$$$$%%%%OOOO@@@@####@@@@####****####....",
"****####OOOO$$$$########$$$$%%%%OOOO@@@@####@@@@####****####....",
"****####OOOO$$$$########$$$$%%%%OOOO@@@@####@@@@####****####....",
"****####OOOO$$$$########$$$$%%%%OOOO@@@@####@@@@####****####....",
"****####OOOO********************OOOO********************####....",
"****####OOOO********************OOOO********************####....",
"****####OOOO********************OOOO********************####....",
"****####OOOO********************OOOO********************####....",
"****########################################################....",
"****########################################################....",
"****########################################################....",
"****########################################################....",
"****............................................................",
"****............................................................",
"****............................................................",
"****............................................................"
};
