/* XPM */
static char *ok[] = {
/* columns rows colors chars-per-pixel */
"64 64 4 1 ",
"  c #695433",
". c #AA8C5F",
"X c #BC9862",
"o c gainsboro",
/* pixels */
"oooooooo                    oooooooo                    oooooooo",
"oooooooo                    oooooooo                    oooooooo",
"oooooooo                    oooooooo                    oooooooo",
"oooooooo                    oooooooo                    oooooooo",
"ooooooooXXXXXXXXXXXX....    ooooooooXXXXXXXXXXXXXXXXXXXXoooooooo",
"ooooooooXXXXXXXXXXXX....    ooooooooXXXXXXXXXXXXXXXXXXXXoooooooo",
"ooooooooXXXXXXXXXXXX....    ooooooooXXXXXXXXXXXXXXXXXXXXoooooooo",
"ooooooooXXXXXXXXXXXX....    ooooooooXXXXXXXXXXXXXXXXXXXXoooooooo",
"    ....................    ................................    ",
"    ....................    ................................    ",
"    ....................    ................................    ",
"    ....................    ................................    ",
"                                                                ",
"                                                                ",
"                                                                ",
"                                                                ",
"    XXXXXXXXXXXXXXXXXXXXXXXX....    XXXXXXXXXXXXXXXXXXXX....    ",
"    XXXXXXXXXXXXXXXXXXXXXXXX....    XXXXXXXXXXXXXXXXXXXX....    ",
"    XXXXXXXXXXXXXXXXXXXXXXXX....    XXXXXXXXXXXXXXXXXXXX....    ",
"    XXXXXXXXXXXXXXXXXXXXXXXX....    XXXXXXXXXXXXXXXXXXXX....    ",
"    ............................    ........................    ",
"    ............................    ........................    ",
"    ............................    ........................    ",
"    ............................    ........................    ",
"                                                                ",
"                                                                ",
"                                                                ",
"                                                                ",
"ooooooooXXXX....    XXXXXXXXXXXXXXXX....    XXXXXXXXXXXXoooooooo",
"ooooooooXXXX....    XXXXXXXXXXXXXXXX....    XXXXXXXXXXXXoooooooo",
"ooooooooXXXX....    XXXXXXXXXXXXXXXX....    XXXXXXXXXXXXoooooooo",
"ooooooooXXXX....    XXXXXXXXXXXXXXXX....    XXXXXXXXXXXXoooooooo",
"oooooooo........    ....................    ............oooooooo",
"oooooooo........    ....................    ............oooooooo",
"oooooooo........    ....................    ............oooooooo",
"oooooooo........    ....................    ............oooooooo",
"                                                                ",
"                                                                ",
"                                                                ",
"                                                                ",
"    XXXXXXXXXXXXXXXXXXXX....    XXXXXXXXXXXXXXXXXXXXXXXX....    ",
"    XXXXXXXXXXXXXXXXXXXX....    XXXXXXXXXXXXXXXXXXXXXXXX....    ",
"    XXXXXXXXXXXXXXXXXXXX....    XXXXXXXXXXXXXXXXXXXXXXXX....    ",
"    XXXXXXXXXXXXXXXXXXXX....    XXXXXXXXXXXXXXXXXXXXXXXX....    ",
"    ........................    ............................    ",
"    ........................    ............................    ",
"    ........................    ............................    ",
"    ........................    ............................    ",
"                                                                ",
"                                                                ",
"                                                                ",
"                                                                ",
"    XXXXXXXXXXXXXXXXXXXXXXXX....    XXXXXXXXXXXXXXXXXXXX....    ",
"    XXXXXXXXXXXXXXXXXXXXXXXX....    XXXXXXXXXXXXXXXXXXXX....    ",
"    XXXXXXXXXXXXXXXXXXXXXXXX....    XXXXXXXXXXXXXXXXXXXX....    ",
"    XXXXXXXXXXXXXXXXXXXXXXXX....    XXXXXXXXXXXXXXXXXXXX....    ",
"oooooooo....................oooooooo....................oooooooo",
"oooooooo....................oooooooo....................oooooooo",
"oooooooo....................oooooooo....................oooooooo",
"oooooooo....................oooooooo....................oooooooo",
"oooooooo                    oooooooo                    oooooooo",
"oooooooo                    oooooooo                    oooooooo",
"oooooooo                    oooooooo                    oooooooo",
"oooooooo                    oooooooo                    oooooooo"
};
