/* XPM */
static char *oui[] = {
/* columns rows colors chars-per-pixel */
"64 56 231 2 ",
"   c #000000",
".  c #0A0502",
"X  c #060904",
"o  c #0C0B04",
"O  c #050A09",
"+  c #0B0C0A",
"@  c #120C03",
"#  c #180E06",
"$  c #05100F",
"%  c #0E110D",
"&  c #141306",
"*  c #1B1204",
"=  c #13120C",
"-  c #1B140B",
";  c #191809",
":  c #1B190C",
">  c #0D0F10",
",  c #0D1312",
"<  c #131513",
"1  c #1C1712",
"2  c #1C1B14",
"3  c #161B1B",
"4  c #1B1D1B",
"5  c #271909",
"6  c #241B0E",
"7  c #32140A",
"8  c #231711",
"9  c #221C13",
"0  c #371A11",
"q  c #13201E",
"w  c #1C211E",
"e  c #29250E",
"r  c #36250B",
"t  c #232215",
"y  c #2C2115",
"u  c #23231C",
"i  c #2C2419",
"p  c #26281E",
"a  c #2C2A1C",
"s  c #342514",
"d  c #392819",
"f  c #3A2E1C",
"g  c #3C311D",
"h  c #0E2020",
"j  c #1C2321",
"k  c #152826",
"l  c #232523",
"z  c #242826",
"x  c #2A2925",
"c  c #242A29",
"v  c #2A2D2B",
"b  c #392D23",
"n  c #23322F",
"m  c #2C312D",
"M  c #3B3324",
"N  c #34342D",
"B  c #383428",
"V  c #253432",
"C  c #2B3332",
"Z  c #323433",
"A  c #333837",
"S  c #3A3B31",
"D  c #363A39",
"F  c #3A3D3C",
"G  c #481E12",
"H  c #462A18",
"J  c #473416",
"K  c #43321B",
"L  c #4B3419",
"P  c #4E391C",
"I  c #432B23",
"U  c #423423",
"Y  c #4A3422",
"T  c #4B3B25",
"R  c #443629",
"E  c #463829",
"W  c #4B3C2A",
"Q  c #553B29",
"!  c #4A3B32",
"~  c #553C33",
"^  c #633F2C",
"/  c #3D403D",
"(  c #584326",
")  c #55422B",
"_  c #5A432B",
"`  c #4C4333",
"'  c #46473B",
"]  c #534231",
"[  c #5B4333",
"{  c #554A33",
"}  c #5C4932",
"|  c #554A39",
" . c #644B35",
".. c #6A4A32",
"X. c #6A4C34",
"o. c #634638",
"O. c #634C3A",
"+. c #6A4D3C",
"@. c #64533C",
"#. c #695639",
"$. c #6B533D",
"%. c #72573B",
"&. c #3D4241",
"*. c #3B4848",
"=. c #424543",
"-. c #454944",
";. c #4B4D45",
":. c #444C4A",
">. c #494D4B",
",. c #594E41",
"<. c #4B504E",
"1. c #595547",
"2. c #52534B",
"3. c #5B5A4D",
"4. c #445050",
"5. c #4E5452",
"6. c #525653",
"7. c #555A55",
"8. c #5D5E53",
"9. c #555B59",
"0. c #5A5E5C",
"q. c #694D42",
"w. c #655542",
"e. c #6A5947",
"r. c #6D5D45",
"t. c #765842",
"y. c #745A43",
"u. c #725C4A",
"i. c #795F52",
"p. c #5C615E",
"a. c #6D604F",
"s. c #756548",
"d. c #74634D",
"f. c #7B624C",
"g. c #666358",
"h. c #7C6355",
"j. c #776857",
"k. c #7C6B54",
"l. c #5E6361",
"z. c #626664",
"x. c #666A66",
"c. c #666C6A",
"v. c #696C6A",
"b. c #6D726D",
"n. c #7D7466",
"m. c #6E7472",
"M. c #727573",
"N. c #747A76",
"B. c #797E77",
"V. c #7C7E7B",
"C. c #816C55",
"Z. c #896853",
"A. c #8D6C56",
"S. c #836C5B",
"D. c #86755B",
"F. c #8C745B",
"G. c #8B7564",
"H. c #8A7568",
"J. c #957A63",
"K. c #927A64",
"L. c #937E6A",
"P. c #987F71",
"I. c #7D8079",
"U. c #8E806A",
"Y. c #97826C",
"T. c #83827A",
"R. c #9B8977",
"E. c #A2856E",
"W. c #A68776",
"Q. c #AB937A",
"!. c #B0937D",
"~. c #7D8583",
"^. c #838582",
"/. c #888D87",
"(. c #8A8E8B",
"). c #8A918F",
"_. c #8F9593",
"`. c #969993",
"'. c #969B99",
"]. c #999D9B",
"[. c #AB9783",
"{. c #B69C85",
"}. c #BB9F93",
"|. c #9CA19D",
" X c #B8A189",
".X c #A6A69C",
"XX c #B7A591",
"oX c #9CA4A2",
"OX c #A6AAA7",
"+X c #A6ACA9",
"@X c #AAB0AC",
"#X c #B0B4AD",
"$X c #AFB2B1",
"%X c #B6BAB4",
"&X c #CBAB94",
"*X c #CFAE98",
"=X c #CAB39A",
"-X c #D5BCA8",
";X c #BCC3BC",
":X c #DAC5AC",
">X c #C4C6BA",
",X c #DACCB5",
"<X c #E3CCB1",
"1X c #BDC8C3",
"2X c #C4CAC4",
"3X c #C5CAC5",
"4X c #C7D0C9",
"5X c #CCD2CB",
"6X c #D1D7CF",
"7X c #D2D6D2",
"8X c #D3DAD5",
"9X c #D6DDDA",
"0X c #D9DED9",
"qX c #E8DAC9",
"wX c #D7E4DD",
"eX c #DAE2DD",
"rX c #EBE6DA",
"tX c #DDE5E1",
"yX c #DFE8E3",
"uX c #E2E4E1",
"iX c #E2E9E6",
"pX c #E6EDEA",
"aX c #E9EEEC",
"sX c #EAF1ED",
"dX c #F6F2E8",
"fX c #EEF4F1",
"gX c #EFF8F4",
"hX c #F2F6F4",
"jX c #F2F9F6",
"kX c #F5FBF9",
"lX c #FCFEFD",
/* pixels */
"lXlXlXlXkXkXhXsXsXpXiXtX9X8X1X+X'., A 5.&.z.l._.>.3 , 4 3 x D F =.>.6.v.4X0XhXhXhX! >.oX|.8X].4 1 1 4 > + O   F D l > +         ",
"lXlXlXlXjXjXhXgXsXpXpXtX9X7X3X+X'.< Z 6.>.l.l.'.9.>   O O c F =.>.>.6.7.b.(.OX5X7X`.V.3XkX$X6.>.=.F l < < < < > c c 1 > w +     ",
"lXlXlXkXkXjXjXsXsXsXpXtX9X7X1X+X|.w m m >.l.l.oX0.< o > < 3 j z v C D F &.&.-.=.F -.g.;X%Xl.A Z z j < < 4 l I >.z.&.F &.Z O     ",
"lXlXkXkXjXjXgXsXsXpXyXwX9X8X1X+X'.x C p.5.l.9.oXc.&.5.<.5.9.g.x.x.N./.(.^.M.l.5.6.0.v.T.P.V.N.v.9.>.v < 4 z.3X3XaXuXz.<.Z       ",
"lXlXkXkXjXgXgXsXpXpXyX9X9X4X$X_./.N -.>X%Xb.5.|.b.N.;X4X5X6XwXeXuXuXtX0X7X3X#XOX+X@X@X$X;X;X;X@XOX(.&.v Z M.$X7XhX7X0.:.x       ",
"kXkXkXjXgXfXsXpXiXiXeXwX1XV.=.Z ' m w p.~.c.9./.v.m.oX|.|.|.+X$X%X$X%X+XOXOX|.]._.'./.l.2.*.5.I.|.v.v 0.(.(.OX].^.].].F >       ",
"kXkXhXsXsXsXpXpXeXeXwX;X6.u Z 9 w o   2 <.p.p.p.0.l.0.l.b.N.~.).].+X%X1X%X(.B S S p m ' 2.-.t 2 1 l l V.'.m.6.6.>.].'.Z .       ",
"hXhXfXfXfXsXiXeXwXwX4X7.; & u x o X X ; ` p.p.5.5.>.>.>.p.z.v.N.~.).'.OX+XV.i 9 % p m N -.g.p./ l Z . :.V.z.^.V.x.M.x.=.F D D F ",
"hXgXgXsXdXpXiXyXeX5Xb.: X X U w.R 9 4 ' ;.F 2.<.>.&.&.&.<.6.9.z.c.N.~.)._.c.+ + % ; p B 1.R.>XXXg.2.;.o 4 O o   . .             ",
"gXsXsXsXsXpXyXwX8X.Xu & X f d.k.i.! l x x * a ' =.&.F *.=.=.4.6.p.c.m.I./.D X o X = x ` k.[.:XdXhXT.S N + +                     ",
"sXsXpXsXpXyXwXeX3X' ; o i O.d.S.S.i.R @ - & o B F F F F &.&.=.:.5.l.c.N.l.  o   o ; g @.U.Q.=XsXlXqX2.N x <                     ",
"sXsXsXpXiXyXwXwX`.u ; t | u.S.G.H.H.j.1   X   o N Z Z Z A A F / *.9.l.m.x X X X o 6 T @.k.Y.[.,XdXrXXXb u = +                   ",
"sXaXiXpXyXeXwX6Xp.t 9 R ! q.d.S.G.Y.W.0.o       2 w w l v Z A F :.5.p.<.  o   o * K [ X.s.C.Y.XX<X<X:X@.; o <                   ",
"aXpXiXiXiXyXwX6X' w B ,.! R q.u.q.Q ,.Y.|       + 9 2 u l v Z A &.:.9.z       . y Q [ X.$.f.L. X,XqX:XU.* @ =                   ",
"pXpXiXiXyXwXwX;Xb a w.` b x ~ G.~ I ~ | j.8     . - 2 4 l v v Z D &.<.$       * P _ o.X.%.%.G.{.:X<X<X{.# & +                   ",
"iXiXiXtXyXwX8XT.w g e.} ! b } }.q.b 8 ! j.a.    X * = < w j l v C &.A       . d ~ o. .X.$.$.u.h.H.[.=X=X8 o = o                 ",
"iXiXtXtXtX0X5X;.& M k.h.h.q.Z.-XP.~ ^ J.*X!.0 .   9 p j j k c C m C <         # 0 d W o.O.o.R i 2 b | g.S .   <                 ",
"tXtXtXtX0X9X.X2 o a k.h.y.%.Z.*X-XP.P.&X*X}.~ .   ; j k k n V V V V O       1 b i U ~  .O.O.[ ] b b ` d.w..   .             < =.",
"0XeX0XeXwX;X' & o 9 k.$.+.y.i.F.P.+.Z.J.&XQ.~   X : q h h k k k k k         # - @ s [ $. .O.H 7 . , | d.R.@ + +       < = + l -.",
"7X8X9X7X#X3.t o X + r. .[ y.$.O.P.+.^ Z.Y.C.!     ; A N.V *.j k k k         o l + 7 H O.C.S.0 * 8 ! L.=X-XR < <       + > 3 >   ",
"6X8X;X`.1.t & X X o @.r.~ q.q.+.q.I d _ D.a +   . e /.wX~.m., k h ,         i _ P H P +.J.&XA.~ ~ $.!.<X<Xy.: j                 ",
"6X>X/.| e & o     o = r.h.+.q.e.j.~ ~ _ {   +     a x.c.oX5., , $ X       @ Y _ ~ _ X.%.A.}.!.R.Q.[.-X<X*X$.9 c < O .     .     ",
"6X`.8.e * o X         a d.f.q.o.q.i.@.W o   X .   : B z h O O O     X     s ......X.%.%.A.-X!.J.G.P.!.{. Xb 9 q C c x c A 9.v.^.",
">X8.e 5 & X             ] y.$.u.C.h.Q f       =   @ e : ,               X r %.%.X.......Z.&X{...+.A.P.[.P.@ l c C v v v C v Z C ",
"#X' e & o               g r.#.r.e.W T -       .     * ;                   * y.t.X.^ ....%.A.E.Q ^ t.H.Q.| o 2 c A *.*.&.A Z Z &.",
";X@.& &                 g #.r.#.[ w.T o       .     & y =                 X  .t.X.^ H 0 H H i.C.o.q.k.H.: X O j A *.*.*.4.*.&.Z ",
"5XB.X X                 f @.@.@.W U 6                 5 ` 2                 T $.P r # . . 5 ~ w.q.r.k.a.  o O q V Z C C *.*.4.4.",
"5X2.                    & { @.} U s .                 o : 9                 s ( 5 5 7 r 5 s f M g @.D.M   X X q k , , 3 V F :.:.",
"3X<                       2 ] W K #                     o X                 o ( P ( J G 0 0 r a W w.j.+ X     , k       O 3 C D ",
"|.                        o   @ #                       X + o O               i #.%...Q Q Q O.@.#.r.a         O <             O ",
"M.                          o                             o                   X g #.%.( 0 T @.s.s.`           O >               ",
"6.                          O   X                                               X ) #.( H Q s.U.@.o           O O               ",
"Z                             +                                                   o M R W ] w.| +             X                 ",
"l                             +                                                     . : 1 i 9 X                                 ",
"4                                                                                                                               ",
"<                                                                                                       ,                       ",
"v                                                                                                     X ,                       ",
"2.a = X X + l                                                                                         O O                       ",
"| %.@.O.a.3.6.                                                                                        $ O X                     ",
"@.s.f.S.H.n.V.                                                                                          O                       ",
"w.f.F.Y.D.T.M.                                      a M f 8                                                                     ",
"s.D.Y.U.j.^.D                                       T } T r .                                                                   ",
"k.Y.Y.K.j.7.m                                       g } T d @                   + + X                                           ",
"F.J.Y.F.3.z z                                       d } ( d *                   Z 6.'                                           ",
"Y.J.K.d.2 w q                                       9 } ) H 5                   X l 4 o                                         ",
"Q.E.F.{   < 4                                       = ( ( J 5                                                                   ",
"!.W.S.M   = 4                                       X W ( P r .                                                             X O ",
"{.E.d.9   , 4                                         f ) P r .                                                               + ",
"!.Y.r.o   + 3                                         y ( P J *                                                                 ",
"E.A.|     X <                                         = P J H *                                                                 ",
"F.r.t       o                                         . J J r 5                                                                 ",
"u.! X                                                   J J J r @                                                               ",
"| 1                                                     g L P ( Y .                                                             ",
"b                     .                                 K P _ %.$.9                                                             ",
"< = = = + = + + o + X O O .                           X                       X             O           O   O         O O       ",
"1 < < = < + + + + O O   . X   X X           X                                                                 O   O   O   O   O "
};
