/* XPM */
static char *plante[] = {
/* columns rows colors chars-per-pixel */
"64 64 4 1 ",
"  c #6F6F6F",
". c #449144",
"X c gray56",
"o c #A4A4A4",
/* pixels */
"XXXXXXXX        XXXXXXXX........XXXXXXXX                XXXXXXXX",
"XXXXXXXX        XXXXXXXX........XXXXXXXX                XXXXXXXX",
"XXXXXXXX        XXXXXXXX........XXXXXXXX                XXXXXXXX",
"XXXXXXXX        XXXXXXXX........XXXXXXXX                XXXXXXXX",
"XXXX    ooooXXXXXXXX................XXXXXXXX        ....XXXXXXXX",
"XXXX    ooooXXXXXXXX................XXXXXXXX        ....XXXXXXXX",
"XXXX    ooooXXXXXXXX................XXXXXXXX        ....XXXXXXXX",
"XXXX    ooooXXXXXXXX................XXXXXXXX        ....XXXXXXXX",
"....ooooXXXX............oooo....XXXX....XXXX    ............oooo",
"....ooooXXXX............oooo....XXXX....XXXX    ............oooo",
"....ooooXXXX............oooo....XXXX....XXXX    ............oooo",
"....ooooXXXX............oooo....XXXX....XXXX    ............oooo",
"................oooo....ooooXXXXXXXX........    ....        ....",
"................oooo....ooooXXXXXXXX........    ....        ....",
"................oooo....ooooXXXXXXXX........    ....        ....",
"................oooo....ooooXXXXXXXX........    ....        ....",
"ooooXXXX    ....        oooooooo........XXXX........XXXX        ",
"ooooXXXX    ....        oooooooo........XXXX........XXXX        ",
"ooooXXXX    ....        oooooooo........XXXX........XXXX        ",
"ooooXXXX    ....        oooooooo........XXXX........XXXX        ",
"ooooXXXX    ........XXXX    ........ooooXXXX....XXXXXXXX........",
"ooooXXXX    ........XXXX    ........ooooXXXX....XXXXXXXX........",
"ooooXXXX    ........XXXX    ........ooooXXXX....XXXXXXXX........",
"ooooXXXX    ........XXXX    ........ooooXXXX....XXXXXXXX........",
"ooooXXXX................oooo............oooo....oooooooo....    ",
"ooooXXXX................oooo............oooo....oooooooo....    ",
"ooooXXXX................oooo............oooo....oooooooo....    ",
"ooooXXXX................oooo............oooo....oooooooo....    ",
"ooooXXXX............    ................                ....    ",
"ooooXXXX............    ................                ....    ",
"ooooXXXX............    ................                ....    ",
"ooooXXXX............    ................                ....    ",
"    ........XXXX............ooooXXXX................oooo        ",
"    ........XXXX............ooooXXXX................oooo        ",
"    ........XXXX............ooooXXXX................oooo        ",
"    ........XXXX............ooooXXXX................oooo        ",
"    ooooXXXXXXXX........        oooo....    ....        XXXXXXXX",
"    ooooXXXXXXXX........        oooo....    ....        XXXXXXXX",
"    ooooXXXXXXXX........        oooo....    ....        XXXXXXXX",
"    ooooXXXXXXXX........        oooo....    ....        XXXXXXXX",
"    ....oooooooo                    ....oooo    ....XXXXXXXXXXXX",
"    ....oooooooo                    ....oooo    ....XXXXXXXXXXXX",
"    ....oooooooo                    ....oooo    ....XXXXXXXXXXXX",
"    ....oooooooo                    ....oooo    ....XXXXXXXXXXXX",
"............        ooooXXXXXXXXXXXX    ....................XXXX",
"............        ooooXXXXXXXXXXXX    ....................XXXX",
"............        ooooXXXXXXXXXXXX    ....................XXXX",
"............        ooooXXXXXXXXXXXX    ....................XXXX",
"    XXXX....................XXXX........        ....XXXX........",
"    XXXX....................XXXX........        ....XXXX........",
"    XXXX....................XXXX........        ....XXXX........",
"    XXXX....................XXXX........        ....XXXX........",
"ooooXXXX....XXXX....    ....oooo....ooooXXXX    oooooooooooo    ",
"ooooXXXX....XXXX....    ....oooo....ooooXXXX    oooooooooooo    ",
"ooooXXXX....XXXX....    ....oooo....ooooXXXX    oooooooooooo    ",
"ooooXXXX....XXXX....    ....oooo....ooooXXXX    oooooooooooo    ",
"    oooo....XXXXXXXXXXXXXXXX............oooo                ....",
"    oooo....XXXXXXXXXXXXXXXX............oooo                ....",
"    oooo....XXXXXXXXXXXXXXXX............oooo                ....",
"    oooo....XXXXXXXXXXXXXXXX............oooo                ....",
"XXXX    oooo........................XXXX    ................XXXX",
"XXXX    oooo........................XXXX    ................XXXX",
"XXXX    oooo........................XXXX    ................XXXX",
"XXXX    oooo........................XXXX    ................XXXX"
};
